<svg xmlns="http://www.w3.org/2000/svg" xmlns:svg="http://www.w3.org/2000/svg" id="svg2" width="60mm" height="16mm" version="1.1" viewBox="0 0 212.598 56.693"><metadata id="metadata7"/><g id="layer1" transform="translate(-27.083522,-19.542193)"><path id="path4185" fill="#000" fill-opacity="1" fill-rule="nonzero" stroke="none" stroke-dasharray="none" stroke-dashoffset="0" stroke-linecap="round" stroke-linejoin="round" stroke-miterlimit="4" stroke-opacity="1" stroke-width="3.5" marker-end="none" marker-mid="none" marker-start="none" d="m 210.64133,73.271462 0,-4.416015 5.49219,-0.296875 1.1875,-1.447266 0,-39.001953 -1.1875,-1.113281 -5.49219,-0.296875 0,-4.416016 27.12695,0 0,4.416016 -5.60351,0.296875 -1.22461,1.113281 0,39.001953 1.22461,1.447266 5.60351,0.296875 0,4.416015 -27.12695,0 z m -59.47187,0 0,-4.267578 4.63867,-0.445312 1.44727,-1.447266 0,-39.001953 -1.00196,-1.113281 -5.08398,-0.556641 0,-4.15625 21.44922,0 0,2.041016 21.7832,33.80664 0,-29.6875 -1.33594,-1.447265 -4.97265,-0.556641 0,-4.15625 19.25976,0 0,4.15625 -4.49023,0.556641 -1.44727,1.447265 0,44.828125 -12.09765,0 -25.16016,-38.742187 0,32.582031 1.07617,1.447266 5.08399,0.445312 0,4.267578 -19.14844,0 z M 118.75032,26.921853 q -5.9375,0 -9.46289,5.789062 -3.48828,5.789063 -3.48828,15.697266 0,9.314453 3.63672,15.066406 3.67382,5.751953 9.38867,5.751953 5.71484,0 9.20312,-5.863281 3.48828,-5.863281 3.48828,-15.771484 0,-9.425781 -3.52539,-15.029297 -3.48828,-5.640625 -9.24023,-5.640625 z M 90.695629,47.2949 q 0,-11.763672 7.681641,-18.925781 7.71875,-7.16211 20.44727,-7.16211 5.19531,0 9.68555,1.410156 4.52734,1.373047 7.9414,4.007813 4.97266,3.822266 7.60742,9.203125 2.63477,5.380859 2.63477,11.689453 0,11.875 -7.97852,19.482422 -7.9414,7.570312 -20.52148,7.570312 -12.43164,0 -19.964848,-7.496093 Q 90.695629,59.578103 90.695629,47.2949 Z M 57.05188,26.921853 q -5.9375,0 -9.462891,5.789062 -3.488281,5.789063 -3.488281,15.697266 0,9.314453 3.636719,15.066406 3.673828,5.751953 9.388672,5.751953 5.714843,0 9.203125,-5.863281 3.488281,-5.863281 3.488281,-15.771484 0,-9.425781 -3.525391,-15.029297 -3.488281,-5.640625 -9.240234,-5.640625 z M 28.997192,47.2949 q 0,-11.763672 7.681641,-18.925781 7.71875,-7.16211 20.447266,-7.16211 5.195312,0 9.685546,1.410156 4.527344,1.373047 7.941407,4.007813 4.972656,3.822266 7.607422,9.203125 2.634765,5.380859 2.634765,11.689453 0,11.875 -7.978515,19.482422 -7.941407,7.570312 -20.521485,7.570312 -12.43164,0 -19.964844,-7.496093 Q 28.997192,59.578103 28.997192,47.2949 Z" baseline-shift="baseline" clip-rule="nonzero" color="#000" color-interpolation="sRGB" color-interpolation-filters="linearRGB" color-rendering="auto" direction="ltr" font-family="CharterITC BT" font-size="76" font-stretch="normal" font-style="normal" font-variant="normal" font-weight="bold" image-rendering="auto" letter-spacing="-.2" shape-rendering="auto" text-anchor="start" text-decoration="none" text-rendering="auto" visibility="visible" word-spacing="0" writing-mode="lr-tb" style="line-height:139.99999762%;-inkscape-font-specification:'CharterITC BT Bold';text-indent:0;text-align:start;text-decoration-line:none;text-decoration-style:solid;text-decoration-color:#000;text-transform:none;block-progression:tb;white-space:normal;isolation:auto;mix-blend-mode:normal;solid-color:#000;solid-opacity:1;marker:none"/></g></svg>